Patient4_TMGait_0pt3_03_left_08_GRF.mot
version=1
nRows=58
nColumns=19
inDegrees=no
endheader
time	F1x	F1y	F1z	M1x	M1y	M1z	F2x	F2y	F2z	M2x	M2y	M2z	EC1x	EC1y	EC1z	EC2x	EC2y	EC2z
14.11	3.9755	-1.1276	1.7025	-0.062828	-0.089881	0.7234	-38.7313	771.5329	-50.5093	275.4972	65.501	792.0001	-0.0592	0.0182	-0.0073	-0.0462	0.0165	0.9585
14.1294	2.5412	-0.87325	1.195	0.0086364	-0.16365	0.39836	-35.8375	775.2108	-51.0258	275.3295	65.1315	793.7185	-0.0592	0.0182	-0.0073	-0.0462	0.0165	0.9585
14.1487	1.3018	-0.63582	0.76153	0.061627	-0.22715	0.14927	-32.8521	779.9116	-51.3955	275.4236	64.4449	795.7821	-0.0592	0.0182	-0.0073	-0.0462	0.0165	0.9585
14.1681	0.33888	-0.43278	0.43413	0.092228	-0.28458	-0.019321	-29.8092	785.8399	-51.5064	275.9668	63.3371	798.3883	-0.0592	0.0182	-0.0073	-0.0462	0.0165	0.9585
14.1874	-0.341	-0.26803	0.21594	0.10213	-0.34084	-0.11692	-26.6886	793.185	-51.3289	277.1099	61.786	801.7582	-0.0592	0.0182	-0.0073	-0.0462	0.0165	0.9585
14.2068	-0.7758	-0.14424	0.094149	0.0975	-0.39894	-0.16829	-23.4889	801.912	-50.9334	278.8835	59.8796	805.9382	-0.0592	0.0182	-0.0073	-0.0462	0.0165	0.9585
14.2261	-1.0241	-0.070931	0.048641	0.088199	-0.46029	-0.20414	-20.283	811.5874	-50.4244	281.1416	57.7709	810.6432	-0.0592	0.0182	-0.0073	-0.0462	0.0165	0.9585
14.2455	-1.1468	-0.06489	0.055732	0.086707	-0.52553	-0.25534	-17.2198	821.3508	-49.8955	283.5629	55.6319	815.2152	-0.0592	0.0182	-0.0073	-0.0462	0.0165	0.9585
14.2649	-1.1968	-0.14255	0.092428	0.10692	-0.59182	-0.35479	-14.4668	829.9769	-49.4206	285.6891	53.6229	818.6533	-0.0592	0.0182	-0.0073	-0.0462	0.0165	0.9585
14.2842	-1.2177	-0.32594	0.14052	0.16512	-0.65685	-0.53989	-12.119	836.0063	-49.0218	286.9905	51.8258	819.7006	-0.0592	0.0182	-0.0073	-0.0462	0.0165	0.9585
14.3036	-1.2398	-0.64623	0.18558	0.27805	-0.71626	-0.8511	-10.1207	838.082	-48.6462	286.9958	50.1948	817.1245	-0.0592	0.0182	-0.0073	-0.0462	0.0165	0.9585
14.3229	-1.2788	-1.135	0.21952	0.45882	-0.76394	-1.3339	-8.2899	835.2989	-48.1952	285.4113	48.5914	810.0554	-0.0592	0.0182	-0.0073	-0.0462	0.0165	0.9585
14.3423	-1.3377	-1.8133	0.23701	0.7143	-0.79419	-2.0183	-6.4027	827.3895	-47.5752	282.1754	46.8663	798.19	-0.0592	0.0182	-0.0073	-0.0462	0.0165	0.9585
14.3616	-1.4031	-2.6721	0.23404	1.0383	-0.79953	-2.8973	-4.2663	814.7737	-46.7306	277.4678	44.9159	781.8646	-0.0592	0.0182	-0.0073	-0.0462	0.0165	0.9585
14.381	-1.4402	-3.6482	0.20146	1.4052	-0.76087	-3.9082	-1.7496	798.5122	-45.6389	271.6848	42.6847	762.0318	-0.0592	0.0182	-0.0073	-0.0462	0.0165	0.9585
14.4004	-1.3968	-4.5906	0.12607	1.7586	-0.64868	-4.8975	1.2143	780.1528	-44.3148	265.3809	40.1628	740.1199	-0.0592	0.0182	-0.0073	-0.0462	0.0165	0.9585
14.4197	-1.205	-5.227	-0.0027183	1.9964	-0.42835	-5.5831	4.6324	761.4731	-42.8141	259.1743	37.3891	717.791	-0.0592	0.0182	-0.0073	-0.0462	0.0165	0.9585
14.4391	-0.78254	-5.135	-0.18824	1.9569	-0.062119	-5.5205	8.4419	744.1383	-41.2426	253.6263	34.4671	696.6248	-0.0592	0.0182	-0.0073	-0.0462	0.0165	0.9585
14.4584	-0.040076	-3.7177	-0.42422	1.4108	0.48267	-4.0739	12.4992	729.3486	-39.7473	249.1274	31.5658	677.789	-0.0592	0.0182	-0.0073	-0.0462	0.0165	0.9585
14.4778	1.1091	-0.21103	-0.69095	0.065693	1.2215	-0.42075	16.5981	717.6625	-38.4647	245.8418	28.8669	661.8637	-0.0592	0.0182	-0.0073	-0.0462	0.0165	0.9585
14.4971	2.7233	6.2626	-0.95047	-2.412	2.1365	6.3828	20.5273	709.035	-37.4661	243.7247	26.4922	648.8714	-0.0592	0.0182	-0.0073	-0.0462	0.0165	0.9585
14.5165	4.7789	16.559	-1.1397	-6.3442	3.1485	17.2619	24.1022	702.9332	-36.743	242.5611	24.4809	638.3884	-0.0592	0.0182	-0.0073	-0.0462	0.0165	0.9585
14.5359	7.1096	31.2683	-1.1593	-11.9481	4.0804	32.8664	27.1665	698.4127	-36.2359	241.9878	22.8185	629.6252	-0.0592	0.0182	-0.0073	-0.0462	0.0165	0.9585
14.5552	9.3192	50.3885	-0.87185	-19.211	4.6194	53.2239	29.5881	694.2269	-35.8637	241.5254	21.4673	621.5321	-0.0592	0.0182	-0.0073	-0.0462	0.0165	0.9585
14.5746	10.838	73.0778	-0.1179	-27.7931	4.3713	77.4853	31.2629	689.0321	-35.5499	240.6458	20.3915	612.9882	-0.0592	0.0182	-0.0073	-0.0462	0.0165	0.9585
14.5939	11.3581	97.8605	1.2522	-37.1047	3.0537	104.1396	32.1283	681.677	-35.2564	238.8805	19.5805	603.0538	-0.0592	0.0182	-0.0073	-0.0462	0.0165	0.9585
14.6133	10.8842	122.9492	3.3076	-46.4445	0.59226	131.3155	32.1921	671.4954	-34.9842	235.9362	19.0389	591.2103	-0.0592	0.0182	-0.0073	-0.0462	0.0165	0.9585
14.6326	9.55	146.6925	5.8356	-55.1928	-2.726	157.2631	31.5406	658.4842	-34.7397	231.771	18.7548	577.4923	-0.0592	0.0182	-0.0073	-0.0462	0.0165	0.9585
14.652	7.4996	168.2472	8.3597	-63.0629	-6.3126	181.0879	30.3406	643.2604	-34.5173	226.5893	18.6846	562.4226	-0.0592	0.0182	-0.0073	-0.0462	0.0165	0.9585
14.6714	4.8271	187.9788	10.4682	-70.2246	-9.6791	203.1935	28.8408	626.6951	-34.3128	220.716	18.7593	546.6744	-0.0592	0.0182	-0.0073	-0.0462	0.0165	0.9585
14.6907	1.58	207.0419	12.0031	-77.126	-12.6378	224.8367	27.3143	609.4039	-34.1076	214.4122	18.884	530.6448	-0.0592	0.0182	-0.0073	-0.0462	0.0165	0.9585
14.7101	-2.157	226.6553	13.0166	-84.2188	-15.2183	247.3206	25.9489	591.4034	-33.8531	207.7444	18.9613	514.2047	-0.0592	0.0182	-0.0073	-0.0462	0.0165	0.9585
14.7294	-6.1882	247.5337	13.7396	-91.7516	-17.6004	271.3631	24.7872	572.0693	-33.4858	200.5531	18.9287	496.7082	-0.0592	0.0182	-0.0073	-0.0462	0.0165	0.9585
14.7488	-10.221	269.7473	14.4888	-99.7261	-20.018	296.9384	23.7508	550.3925	-32.9464	192.5351	18.7639	477.2169	-0.0592	0.0182	-0.0073	-0.0462	0.0165	0.9585
14.7681	-13.9694	292.9957	15.5407	-108.0096	-22.6606	323.5914	22.7365	525.4601	-32.19	183.4112	18.4609	454.9109	-0.0592	0.0182	-0.0073	-0.0462	0.0165	0.9585
14.7875	-17.2178	316.9369	17.0382	-116.4655	-25.5945	350.8101	21.6895	496.914	-31.1875	173.0886	18.0098	429.4788	-0.0592	0.0182	-0.0073	-0.0462	0.0165	0.9585
14.8069	-19.8253	341.3513	18.9872	-125.0184	-28.7648	378.2266	20.6188	465.1466	-29.9263	161.7303	17.395	401.2744	-0.0592	0.0182	-0.0073	-0.0462	0.0165	0.9585
14.8262	-21.7354	366.122	21.3129	-133.6415	-32.0625	405.619	19.5848	431.28	-28.4287	149.7432	16.6116	371.289	-0.0592	0.0182	-0.0073	-0.0462	0.0165	0.9585
14.8456	-22.9733	391.0659	23.9071	-142.2878	-35.3715	432.7511	18.6667	396.9764	-26.7655	137.7126	15.686	340.9832	-0.0592	0.0182	-0.0073	-0.0462	0.0165	0.9585
14.8649	-23.6487	415.8147	26.6204	-150.8431	-38.5625	459.2495	17.9206	364.1082	-25.0434	126.286	14.6776	311.9952	-0.0592	0.0182	-0.0073	-0.0462	0.0165	0.9585
14.8843	-23.942	439.8409	29.2686	-159.1314	-41.4959	484.6221	17.3619	334.3377	-23.3715	116.0266	13.6587	285.7712	-0.0592	0.0182	-0.0073	-0.0462	0.0165	0.9585
14.9036	-24.0694	462.5675	31.6808	-166.9486	-44.0604	508.3483	16.9732	308.6987	-21.8272	107.27	12.6884	263.2011	-0.0592	0.0182	-0.0073	-0.0462	0.0165	0.9585
14.923	-24.2331	483.5105	33.7386	-174.1171	-46.1945	529.9972	16.7138	287.2848	-20.4422	100.021	11.7971	244.359	-0.0592	0.0182	-0.0073	-0.0462	0.0165	0.9585
14.9424	-24.5699	502.4722	35.4024	-180.5623	-47.8975	549.4012	16.5272	269.1845	-19.2029	93.9332	10.9816	228.4598	-0.0592	0.0182	-0.0073	-0.0462	0.0165	0.9585
14.9617	-25.1262	519.716	36.7351	-186.3761	-49.2476	566.8246	16.3286	252.7386	-18.0594	88.4007	10.2171	214.0854	-0.0592	0.0182	-0.0073	-0.0462	0.0165	0.9585
14.9811	-25.8723	536.0297	37.8998	-191.8399	-50.4039	583.0429	15.9697	236.0175	-16.9408	82.7286	9.4843	199.5981	-0.0592	0.0182	-0.0073	-0.0462	0.0165	0.9585
15.0004	-26.7374	552.6459	39.1207	-197.3954	-51.5793	599.2801	15.2541	217.3654	-15.7785	76.3262	8.79	183.5982	-0.0592	0.0182	-0.0073	-0.0462	0.0165	0.9585
15.0198	-27.6344	571.0139	40.6332	-203.5606	-53.0001	616.9855	14.0106	195.8449	-14.5349	68.8635	8.1632	165.2881	-0.0592	0.0182	-0.0073	-0.0462	0.0165	0.9585
15.0391	-28.4836	592.461	42.6264	-210.8092	-54.8509	637.489	12.1652	171.4388	-13.2038	60.3402	7.6298	144.6394	-0.0592	0.0182	-0.0073	-0.0462	0.0165	0.9585
15.0585	-29.233	617.8261	45.1946	-219.4431	-57.2244	661.6141	9.7847	144.9694	-11.7923	51.0547	7.1822	122.322	-0.0592	0.0182	-0.0073	-0.0462	0.0165	0.9585
15.0779	-29.8427	647.1864	48.3087	-229.5012	-60.0874	689.393	7.0823	117.8142	-10.3085	41.5014	6.7646	99.4666	-0.0592	0.0182	-0.0073	-0.0462	0.0165	0.9585
15.0972	-30.2712	679.8131	51.813	-240.7437	-63.2711	720.0253	4.3594	91.5201	-8.754	32.2361	6.2867	77.3512	-0.0592	0.0182	-0.0073	-0.0462	0.0165	0.9585
15.1166	-30.4753	714.3093	55.4517	-252.6963	-66.4997	752.0326	1.9107	67.4664	-7.1394	23.7552	5.6675	57.1245	-0.0592	0.0182	-0.0073	-0.0462	0.0165	0.9585
15.1359	-30.3983	748.8702	58.9218	-264.7372	-69.4397	783.5308	-0.028401	46.6703	-5.508	16.424	4.8703	39.6408	-0.0592	0.0182	-0.0073	-0.0462	0.0165	0.9585
15.1553	-29.9766	781.5519	61.9385	-276.1855	-71.7705	812.5225	-1.3046	29.7322	-3.9397	10.457	3.9143	25.4068	-0.0592	0.0182	-0.0073	-0.0462	0.0165	0.9585
15.1746	-29.1553	810.4403	64.2956	-286.3567	-73.2533	837.0887	-1.8857	16.8563	-2.5394	5.9268	2.8789	14.5939	-0.0592	0.0182	-0.0073	-0.0462	0.0165	0.9585
15.194	-27.882	833.7434	65.8929	-294.5951	-73.7608	855.4751	-1.9324	7.8849	-1.4058	2.7759	1.9027	7.0679	-0.0592	0.0182	-0.0073	-0.0462	0.0165	0.9585
15.2134	-26.1029	849.8848	66.7213	-300.3146	-73.2654	866.1878	-1.6812	2.2865	-0.58078	0.81546	1.1008	2.3834	-0.0592	0.0182	-0.0073	-0.0462	0.0165	0.9585
